<?xml version="1.0" encoding="utf-8"?>
<!-- Generator: Adobe Illustrator 26.5.0, SVG Export Plug-In . SVG Version: 6.00 Build 0)  -->
<svg version="1.1" id="Layer_1" xmlns="http://www.w3.org/2000/svg" xmlns:xlink="http://www.w3.org/1999/xlink" x="0px" y="0px"
	 viewBox="0 0 310 250" style="enable-background:new 0 0 310 250;" xml:space="preserve">
<style type="text/css">
	.st0{fill:#151A3C;}
	.st1{fill:#F98600;}
	.st2{fill:#FFFFFF;}
</style>
<rect class="st0" width="310" height="250"/>
<g>
	<polygon class="st1" points="208,83.2 208,220.9 194.7,230.9 	"/>
	<g>
		<path class="st1" d="M209.4,62.7L209.4,62.7l0-0.1L209.4,62.7z"/>
	</g>
	<polygon class="st1" points="137,141.9 137,188.4 123.7,198.4 129.1,138.3 	"/>
	<g>
		<polygon class="st1" points="138.9,140.9 138.9,140.9 128.2,136.1 129,136.4 		"/>
	</g>
	<polygon class="st1" points="207.3,62.7 193.4,73.1 123.2,41.1 102.8,31.7 119.8,23.3 	"/>
	<g>
		<path class="st1" d="M209.4,62.7L209.4,62.7l0-0.1L209.4,62.7z"/>
	</g>
	<path class="st2" d="M209.4,62.3l-0.3-0.1l-70.9-31.9l-0.2-0.1l-0.1-0.1L119.8,22l-18.9,9.3l-0.4,0.2v159.1l21.6,9.9l0.5,0.2
		l0.4-0.3l15.4-11.6V142l33,15.1v66l21.6,9.9l0.5,0.2l0.4-0.3l15.4-11.6V62.7l0,0l0-0.1V62.3z M137,188.4l-13.3,10.1l5.4-60.2
		l7.9,3.6V188.4z M172.8,210v-53.6l-33.9-15.5l-10.7-4.9l-13.5-6.2l-5.6-2.5l0,0.3l-0.3,2l-0.1,0.8l-0.4,2.5l-6.5,44.5V33.1
		l90.7,41.5L172.8,210z M193.4,73.1l-70.1-32.1l-20.4-9.4l17-8.4l87.5,39.3L193.4,73.1z M208,220.9l-13.3,10.1L208,83.2V220.9z"/>
	<path class="st1" d="M192.5,74.5l-90.7-41.5v144.5l6.5-44.5l0.4-2.5l0.1-0.8l0.3-2l0-0.3l5.6,2.5l13.5,6.2l0.8,0.4l9.9,4.5v0
		l33.9,15.5V210L192.5,74.5z M112.7,108.1l0.5-0.2l19.9-9.7l0.5-0.2l3.5,1.6V71.8l-1.8-0.8l-2.3,25.8l-0.5,0.3l-19.7,9.6l-0.5,0.3
		l6.6-45.3l54.1,24.7v49.2L112.7,108.1z"/>
	<g>
		<g>
			<g>
				<path class="st2" d="M118.7,61.6l-6.6,45.3l0.5-0.3l19.7-9.6l0.5-0.3l2.3-25.8l1.8,0.8v27.7l-3.5-1.6l-0.5,0.2l-19.9,9.7
					l-0.5,0.2l60.2,27.5V86.4L118.7,61.6z M171.4,115.7l-33-14.7v-29l33,15.1V115.7z"/>
			</g>
		</g>
	</g>
</g>
</svg>
